<?xml version="1.0" encoding="UTF-8" standalone="no" ?>
<!DOCTYPE svg PUBLIC "-//W3C//DTD SVG 1.1//EN" "http://www.w3.org/Graphics/SVG/1.1/DTD/svg11.dtd">
<svg xmlns="http://www.w3.org/2000/svg" xmlns:xlink="http://www.w3.org/1999/xlink" version="1.1" width="1280" height="1024" viewBox="0 0 1280 1024" xml:space="preserve">
<desc>Created with Fabric.js 5.3.0</desc>
<defs>
</defs>
<g transform="matrix(1 0 0 1 640 512)" id="background-logo"  >
<rect style="stroke: none; stroke-width: 0; stroke-dasharray: none; stroke-linecap: butt; stroke-dashoffset: 0; stroke-linejoin: miter; stroke-miterlimit: 4; fill: rgb(40,23,64); fill-rule: nonzero; opacity: 1;"  paint-order="stroke"  x="-640" y="-512" rx="0" ry="0" width="1280" height="1024" />
</g>
<g transform="matrix(1.9211538461538462 0 0 1.9211538461538462 640 395.33702709672724)" id="logo-logo"  >
<g style=""  paint-order="stroke"   >
		<g transform="matrix(0.3836132453686186 0 0 0.38361324536861857 55.604739916181245 44.41463385650172)"  >
<linearGradient id="SVGID_1_5_5_5_5_5_5_5_158348" gradientUnits="userSpaceOnUse" gradientTransform="matrix(1 0 0 1 0 0)"  x1="822.642" y1="712.1362" x2="546.8973" y2="545.1575">
<stop offset="0%" style="stop-color:rgb(242,56,143);stop-opacity: 1"/>
<stop offset="100%" style="stop-color:rgb(40,23,64);stop-opacity: 1"/>
</linearGradient>
<path style="stroke: none; stroke-width: 1; stroke-dasharray: none; stroke-linecap: butt; stroke-dashoffset: 0; stroke-linejoin: miter; stroke-miterlimit: 4; fill: url(#SVGID_1_5_5_5_5_5_5_5_158348); fill-rule: nonzero; opacity: 1;"  paint-order="stroke"  transform=" translate(-654, -593.95)" d="M 810.7 712.9 L 729.4000000000001 712.9 C 684.7 712.9 641.9000000000001 695.1999999999999 610.3000000000001 663.6 L 497.30000000000007 550.6 L 572.8000000000001 475 L 810.7 712.9 z" stroke-linecap="round" />
</g>
		<g transform="matrix(0.3836132453686186 0 0 0.38361324536861857 -65.46360032215472 -69.55686134251488)"  >
<linearGradient id="SVGID_2_6_6_6_6_6_6_6_158349" gradientUnits="userSpaceOnUse" gradientTransform="matrix(1 0 0 1 0 0)"  x1="184.4468" y1="296.851" x2="383.9725" y2="296.851">
<stop offset="0%" style="stop-color:rgb(242,56,143);stop-opacity: 1"/>
<stop offset="100%" style="stop-color:rgb(40,23,64);stop-opacity: 1"/>
</linearGradient>
<path style="stroke: none; stroke-width: 1; stroke-dasharray: none; stroke-linecap: butt; stroke-dashoffset: 0; stroke-linejoin: miter; stroke-miterlimit: 4; fill: url(#SVGID_2_6_6_6_6_6_6_6_158349); fill-rule: nonzero; opacity: 1;"  paint-order="stroke"  transform=" translate(-338.4, -296.85)" d="M 469.4 350.3 L 469.4 350.3 L 207.39999999999998 350.3 L 207.39999999999998 243.4 L 362.5 243.4 C 421.5 243.4 469.4 291.3 469.4 350.3 z" stroke-linecap="round" />
</g>
		<g transform="matrix(0.3836132453686186 0 0 0.38361324536861857 -46.225396066918506 0)"  >
<linearGradient id="SVGID_3_7_7_7_7_7_7_7_158350" gradientUnits="userSpaceOnUse" gradientTransform="matrix(1 0 0 1 0 0)"  x1="249.299" y1="379.8141" x2="485.2139" y2="528.4099">
<stop offset="0%" style="stop-color:rgb(242,56,143);stop-opacity: 1"/>
<stop offset="100%" style="stop-color:rgb(40,23,64);stop-opacity: 1"/>
</linearGradient>
<path style="stroke: none; stroke-width: 1; stroke-dasharray: none; stroke-linecap: butt; stroke-dashoffset: 0; stroke-linejoin: miter; stroke-miterlimit: 4; fill: url(#SVGID_3_7_7_7_7_7_7_7_158350); fill-rule: nonzero; opacity: 1;"  paint-order="stroke"  transform=" translate(-388.54999999999995, -478.1702807313831)" d="M 469.4 350.3 L 469.4 705.9000000000001 C 439.09999999999997 720.4000000000001 400.09999999999997 712.6000000000001 379.59999999999997 681.6000000000001 C 379.4 681.4000000000001 379.29999999999995 681.1000000000001 379.09999999999997 680.9000000000001 C 378.79999999999995 680.4000000000001 378.49999999999994 679.9000000000001 378.2 679.5000000000001 L 378.2 679.5000000000001 C 371.5 668.7000000000002 366.8 656.5000000000001 364.3 643.6000000000001 C 364.3 643.6000000000001 364.3 643.6000000000001 364.3 643.5000000000001 C 364.3 643.3000000000001 364.2 643.2000000000002 364.2 643.0000000000001 C 363.09999999999997 636.8000000000001 362.5 630.3000000000001 362.5 623.8000000000001 L 362.5 574.0000000000001 C 362.5 573.7000000000002 362.5 573.3000000000001 362.5 573.0000000000001 L 362.5 298.2 C 362.5 267.9 338 243.39999999999998 307.7 243.39999999999998 L 362.5 243.39999999999998 C 362.7 243.39999999999998 362.9 243.39999999999998 363.2 243.39999999999998 C 363.5 243.39999999999998 363.9 243.39999999999998 364.3 243.39999999999998 C 422.2 244.29999999999998 469.1 291.5 469.4 349.5 C 469.4 349.8 469.4 350 469.4 350.3 z" stroke-linecap="round" />
</g>
		<g transform="matrix(0.3836132453686186 0 0 0.38361324536861857 13.138753653875199 9.836133757479956)"  >
<linearGradient id="SVGID_4_8_8_8_8_8_8_8_158351" gradientUnits="userSpaceOnUse" gradientTransform="matrix(1 0 0 1 0 0)"  x1="687.6003" y1="260.7926" x2="234.1535" y2="970.0692">
<stop offset="0%" style="stop-color:rgb(242,56,143);stop-opacity: 1"/>
<stop offset="100%" style="stop-color:rgb(40,23,64);stop-opacity: 1"/>
</linearGradient>
<path style="stroke: none; stroke-width: 1; stroke-dasharray: none; stroke-linecap: butt; stroke-dashoffset: 0; stroke-linejoin: miter; stroke-miterlimit: 4; fill: url(#SVGID_4_8_8_8_8_8_8_8_158351); fill-rule: nonzero; opacity: 1;"  paint-order="stroke"  transform=" translate(-543.3, -503.8110370822966)" d="M 722.3 294.8 L 713.9 309.3 L 692.9 345.5 L 500.3 677.2 C 492.6 690.4000000000001 481.7 700 469.40000000000003 705.9000000000001 C 438.40000000000003 720.7 398.30000000000007 712.2 378.30000000000007 679.5000000000001 C 377.80000000000007 678.7000000000002 377.30000000000007 677.9000000000001 376.9000000000001 677.1000000000001 C 370.9000000000001 666.7000000000002 366.5000000000001 655.1000000000001 364.30000000000007 642.9000000000001 C 370.00000000000006 654.9000000000001 388.4000000000001 657.4000000000001 396.1000000000001 644.0000000000001 L 469.4000000000001 517.6000000000001 L 567.8 348 C 586.5 315.8 619.5 297 654.0999999999999 294.9 L 653.9999999999999 294.7 L 722.3 294.7 z" stroke-linecap="round" />
</g>
</g>
</g>
<g transform="matrix(1.9211538461538462 0 0 1.9211538461538462 646.1530407967545 660.160419411159)" id="text-logo"  >
<g style=""  paint-order="stroke"   >
		<g transform="matrix(1 0 0 1 0 0)" id="text-logo-path-0"  >
<path style="stroke: none; stroke-width: 0; stroke-dasharray: none; stroke-linecap: butt; stroke-dashoffset: 0; stroke-linejoin: miter; stroke-miterlimit: 4; fill: rgb(188,123,164); fill-rule: nonzero; opacity: 1;"  paint-order="stroke"  transform=" translate(-262.28999999999996, 8.565)" d="M 6.89 0 L 2.57 0 L 2.57 -22.07 L 6.89 -22.07 L 6.89 -9.73 L 15.23 -22.07 L 19.56 -22.07 L 12.52 -11.69 L 20.12 0 L 15.09 0 L 9.88 -8.34 L 6.89 -4.31 L 6.89 0 Z M 33.37 0 L 29.07 0 L 29.07 -22.07 L 33.22 -22.07 L 42.27 -7.63 L 42.27 -22.07 L 46.58 -22.07 L 46.58 -2.23 Q 46.58 -1.21 45.96 -0.48 Q 45.34 0.24 44.5 0.24 L 44.5 0.24 Q 44.07 0.24 43.71 0.16 Q 43.35 0.08 42.87 -0.15 Q 42.39 -0.38 41.92 -0.91 Q 41.44 -1.44 41 -2.23 L 41 -2.23 L 33.37 -14.17 L 33.37 0 Z M 61.35 -18.22 L 55.46 -18.22 L 55.46 -22.07 L 71.58 -22.07 L 71.58 -18.22 L 65.67 -18.22 L 65.67 0 L 61.35 0 L 61.35 -18.22 Z M 98.64 -18.22 L 92.75 -18.22 L 92.75 -22.07 L 108.87 -22.07 L 108.87 -18.22 L 102.95 -18.22 L 102.95 0 L 98.64 0 L 98.64 -18.22 Z M 118.41 -5.83 L 118.41 -5.83 L 118.41 -22.07 L 132.95 -22.07 L 132.95 -18.22 L 122.73 -18.22 L 122.73 -13.05 L 129.89 -13.05 L 129.57 -9.2 L 122.73 -9.2 L 122.73 -6.15 Q 122.73 -4.83 123.32 -4.34 Q 123.91 -3.84 125.45 -3.84 L 125.45 -3.84 L 132.95 -3.84 L 132.95 0 L 125.14 0 Q 121.41 0 119.91 -1.28 Q 118.41 -2.56 118.41 -5.83 Z M 142.01 -9.76 L 142.01 -9.76 L 142.01 -11.63 Q 142.01 -13.52 142.24 -15.04 Q 142.48 -16.56 143.07 -17.94 Q 143.66 -19.31 144.6 -20.24 Q 145.53 -21.16 147.02 -21.71 Q 148.52 -22.25 150.47 -22.25 L 150.47 -22.25 Q 152.77 -22.25 154.53 -21.45 Q 156.3 -20.65 157.36 -18.92 Q 158.43 -17.2 158.43 -14.73 L 158.43 -14.73 L 154.4 -14.73 Q 154.07 -16.57 153.2 -17.5 Q 152.33 -18.42 150.47 -18.42 L 150.47 -18.42 Q 149.82 -18.42 149.27 -18.29 Q 148.73 -18.16 148.33 -17.97 Q 147.93 -17.77 147.61 -17.42 Q 147.29 -17.07 147.08 -16.74 Q 146.87 -16.41 146.72 -15.89 Q 146.58 -15.38 146.5 -14.97 Q 146.43 -14.56 146.38 -13.93 Q 146.34 -13.31 146.33 -12.87 Q 146.32 -12.43 146.32 -11.75 L 146.32 -11.75 L 146.32 -9.82 Q 146.32 -9.07 146.34 -8.53 Q 146.37 -7.99 146.46 -7.3 Q 146.55 -6.61 146.72 -6.14 Q 146.9 -5.66 147.2 -5.16 Q 147.5 -4.66 147.93 -4.36 Q 148.36 -4.06 149.01 -3.86 Q 149.65 -3.66 150.47 -3.66 L 150.47 -3.66 Q 151.6 -3.66 152.38 -4 Q 153.15 -4.33 153.58 -5.03 Q 154.01 -5.72 154.21 -6.52 Q 154.42 -7.33 154.52 -8.55 L 154.52 -8.55 L 158.52 -8.55 Q 158.52 -4.33 156.42 -2.07 Q 154.31 0.18 150.47 0.18 L 150.47 0.18 Q 142.01 0.18 142.01 -9.76 Z M 172.38 0 L 168.08 0 L 168.08 -22.07 L 172.38 -22.07 L 172.38 -12.75 L 180.48 -12.75 L 180.48 -22.07 L 184.78 -22.07 L 184.78 0 L 180.48 0 L 180.48 -8.93 L 172.38 -8.93 L 172.38 0 Z M 199.8 0 L 195.5 0 L 195.5 -22.07 L 199.65 -22.07 L 208.7 -7.63 L 208.7 -22.07 L 213.02 -22.07 L 213.02 -2.23 Q 213.02 -1.21 212.4 -0.48 Q 211.77 0.24 210.93 0.24 L 210.93 0.24 Q 210.5 0.24 210.14 0.16 Q 209.78 0.08 209.3 -0.15 Q 208.82 -0.38 208.35 -0.91 Q 207.87 -1.44 207.43 -2.23 L 207.43 -2.23 L 199.8 -14.17 L 199.8 0 Z M 222.3 -10.47 L 222.3 -10.47 L 222.3 -12.09 Q 222.3 -17.23 224.4 -19.74 Q 226.5 -22.25 231.07 -22.25 L 231.07 -22.25 Q 235.58 -22.25 237.71 -19.72 Q 239.85 -17.18 239.85 -12.06 L 239.85 -12.06 L 239.85 -10.38 Q 239.85 -4.81 237.75 -2.32 Q 235.65 0.18 231.07 0.18 L 231.07 0.18 Q 226.42 0.18 224.36 -2.32 Q 222.3 -4.81 222.3 -10.47 Z M 226.62 -11.63 L 226.62 -10.47 Q 226.63 -9.61 226.66 -9.02 Q 226.68 -8.43 226.78 -7.66 Q 226.89 -6.89 227.06 -6.36 Q 227.24 -5.84 227.57 -5.29 Q 227.9 -4.74 228.37 -4.41 Q 228.83 -4.09 229.51 -3.88 Q 230.19 -3.66 231.07 -3.66 L 231.07 -3.66 Q 231.92 -3.66 232.59 -3.87 Q 233.26 -4.07 233.72 -4.4 Q 234.19 -4.74 234.53 -5.27 Q 234.87 -5.8 235.06 -6.34 Q 235.25 -6.89 235.36 -7.63 Q 235.47 -8.37 235.5 -9.01 Q 235.53 -9.64 235.53 -10.47 L 235.53 -10.47 L 235.53 -11.63 Q 235.53 -12.65 235.47 -13.43 Q 235.41 -14.2 235.25 -15.02 Q 235.09 -15.85 234.78 -16.42 Q 234.47 -17 233.99 -17.48 Q 233.51 -17.95 232.77 -18.19 Q 232.04 -18.42 231.07 -18.42 L 231.07 -18.42 Q 230.22 -18.42 229.55 -18.23 Q 228.89 -18.04 228.43 -17.73 Q 227.97 -17.41 227.63 -16.9 Q 227.3 -16.39 227.1 -15.86 Q 226.91 -15.32 226.8 -14.58 Q 226.69 -13.83 226.66 -13.17 Q 226.62 -12.5 226.62 -11.63 L 226.62 -11.63 Z M 249.82 -6.15 L 249.82 -6.15 L 249.82 -22.07 L 254.13 -22.07 L 254.13 -6.15 Q 254.13 -4.83 254.72 -4.34 Q 255.31 -3.84 256.85 -3.84 L 256.85 -3.84 L 263.42 -3.84 L 263.42 0 L 256.85 0 Q 253.15 0 251.48 -1.44 Q 249.82 -2.88 249.82 -6.15 Z M 271.7 -10.47 L 271.7 -10.47 L 271.7 -12.09 Q 271.7 -17.23 273.79 -19.74 Q 275.89 -22.25 280.46 -22.25 L 280.46 -22.25 Q 284.97 -22.25 287.11 -19.72 Q 289.24 -17.18 289.24 -12.06 L 289.24 -12.06 L 289.24 -10.38 Q 289.24 -4.81 287.15 -2.32 Q 285.05 0.18 280.46 0.18 L 280.46 0.18 Q 275.82 0.18 273.76 -2.32 Q 271.7 -4.81 271.7 -10.47 Z M 276.01 -11.63 L 276.01 -10.47 Q 276.03 -9.61 276.05 -9.02 Q 276.07 -8.43 276.18 -7.66 Q 276.28 -6.89 276.46 -6.36 Q 276.63 -5.84 276.97 -5.29 Q 277.3 -4.74 277.76 -4.41 Q 278.22 -4.09 278.9 -3.88 Q 279.58 -3.66 280.46 -3.66 L 280.46 -3.66 Q 281.31 -3.66 281.98 -3.87 Q 282.66 -4.07 283.12 -4.4 Q 283.58 -4.74 283.92 -5.27 Q 284.26 -5.8 284.45 -6.34 Q 284.64 -6.89 284.75 -7.63 Q 284.87 -8.37 284.9 -9.01 Q 284.93 -9.64 284.93 -10.47 L 284.93 -10.47 L 284.93 -11.63 Q 284.93 -12.65 284.87 -13.43 Q 284.81 -14.2 284.65 -15.02 Q 284.49 -15.85 284.18 -16.42 Q 283.87 -17 283.38 -17.48 Q 282.9 -17.95 282.17 -18.19 Q 281.43 -18.42 280.46 -18.42 L 280.46 -18.42 Q 279.61 -18.42 278.95 -18.23 Q 278.28 -18.04 277.82 -17.73 Q 277.36 -17.41 277.03 -16.9 Q 276.69 -16.39 276.5 -15.86 Q 276.3 -15.32 276.19 -14.58 Q 276.09 -13.83 276.05 -13.17 Q 276.01 -12.5 276.01 -11.63 L 276.01 -11.63 Z M 297.85 -10.38 L 297.85 -10.38 L 297.85 -13.11 Q 297.85 -17.44 300.11 -19.84 Q 302.37 -22.25 306.52 -22.25 L 306.52 -22.25 Q 308.4 -22.25 310.01 -21.63 Q 311.62 -21.01 312.79 -19.84 L 312.79 -19.84 Q 314.5 -18.13 314.5 -14.73 L 314.5 -14.73 L 310.46 -14.73 Q 310.46 -18.42 306.52 -18.42 L 306.52 -18.42 Q 305.54 -18.42 304.8 -18.16 Q 304.07 -17.91 303.63 -17.31 Q 303.19 -16.71 302.93 -16.15 Q 302.66 -15.59 302.56 -14.58 Q 302.45 -13.56 302.43 -12.9 Q 302.4 -12.25 302.4 -11.03 L 302.4 -11.03 Q 302.43 -8.19 302.65 -7.08 L 302.65 -7.08 Q 303.12 -4.68 304.95 -3.98 L 304.95 -3.98 Q 305.8 -3.66 306.96 -3.66 L 306.96 -3.66 Q 309.67 -3.66 310.77 -5.95 L 310.77 -5.95 L 310.77 -7.45 L 308.11 -7.45 L 308.11 -11.03 L 314.47 -11.03 L 314.47 -4.37 Q 313.51 -2.12 311.43 -0.97 Q 309.35 0.18 306.72 0.18 L 306.72 0.18 Q 302.04 0.18 299.94 -2.44 Q 297.85 -5.06 297.85 -10.38 Z M 329.3 -9.05 L 322.67 -22.07 L 327.34 -22.07 L 331.48 -13.17 L 335.53 -22.07 L 340.21 -22.07 L 333.58 -9.05 L 333.58 0 L 329.3 0 L 329.3 -9.05 Z M 361.1 -9.76 L 361.1 -9.76 L 361.1 -11.63 Q 361.1 -13.52 361.34 -15.04 Q 361.57 -16.56 362.16 -17.94 Q 362.75 -19.31 363.69 -20.24 Q 364.63 -21.16 366.12 -21.71 Q 367.61 -22.25 369.56 -22.25 L 369.56 -22.25 Q 371.86 -22.25 373.63 -21.45 Q 375.39 -20.65 376.46 -18.92 Q 377.52 -17.2 377.52 -14.73 L 377.52 -14.73 L 373.5 -14.73 Q 373.17 -16.57 372.3 -17.5 Q 371.42 -18.42 369.56 -18.42 L 369.56 -18.42 Q 368.91 -18.42 368.37 -18.29 Q 367.82 -18.16 367.42 -17.97 Q 367.02 -17.77 366.7 -17.42 Q 366.38 -17.07 366.17 -16.74 Q 365.96 -16.41 365.82 -15.89 Q 365.67 -15.38 365.6 -14.97 Q 365.52 -14.56 365.48 -13.93 Q 365.43 -13.31 365.42 -12.87 Q 365.42 -12.43 365.42 -11.75 L 365.42 -11.75 L 365.42 -9.82 Q 365.42 -9.07 365.44 -8.53 Q 365.46 -7.99 365.55 -7.3 Q 365.64 -6.61 365.82 -6.14 Q 365.99 -5.66 366.29 -5.16 Q 366.6 -4.66 367.03 -4.36 Q 367.46 -4.06 368.1 -3.86 Q 368.75 -3.66 369.56 -3.66 L 369.56 -3.66 Q 370.7 -3.66 371.47 -4 Q 372.24 -4.33 372.67 -5.03 Q 373.1 -5.72 373.31 -6.52 Q 373.51 -7.33 373.62 -8.55 L 373.62 -8.55 L 377.62 -8.55 Q 377.62 -4.33 375.51 -2.07 Q 373.41 0.18 369.56 0.18 L 369.56 0.18 Q 361.1 0.18 361.1 -9.76 Z M 386.12 -10.47 L 386.12 -10.47 L 386.12 -12.09 Q 386.12 -17.23 388.21 -19.74 Q 390.31 -22.25 394.88 -22.25 L 394.88 -22.25 Q 399.39 -22.25 401.53 -19.72 Q 403.66 -17.18 403.66 -12.06 L 403.66 -12.06 L 403.66 -10.38 Q 403.66 -4.81 401.56 -2.32 Q 399.47 0.18 394.88 0.18 L 394.88 0.18 Q 390.23 0.18 388.18 -2.32 Q 386.12 -4.81 386.12 -10.47 Z M 390.43 -11.63 L 390.43 -10.47 Q 390.45 -9.61 390.47 -9.02 Q 390.49 -8.43 390.6 -7.66 Q 390.7 -6.89 390.88 -6.36 Q 391.05 -5.84 391.38 -5.29 Q 391.72 -4.74 392.18 -4.41 Q 392.64 -4.09 393.32 -3.88 Q 394 -3.66 394.88 -3.66 L 394.88 -3.66 Q 395.73 -3.66 396.4 -3.87 Q 397.08 -4.07 397.54 -4.4 Q 398 -4.74 398.34 -5.27 Q 398.68 -5.8 398.87 -6.34 Q 399.06 -6.89 399.17 -7.63 Q 399.29 -8.37 399.32 -9.01 Q 399.35 -9.64 399.35 -10.47 L 399.35 -10.47 L 399.35 -11.63 Q 399.35 -12.65 399.29 -13.43 Q 399.22 -14.2 399.07 -15.02 Q 398.91 -15.85 398.6 -16.42 Q 398.29 -17 397.8 -17.48 Q 397.32 -17.95 396.58 -18.19 Q 395.85 -18.42 394.88 -18.42 L 394.88 -18.42 Q 394.03 -18.42 393.37 -18.23 Q 392.7 -18.04 392.24 -17.73 Q 391.78 -17.41 391.44 -16.9 Q 391.11 -16.39 390.91 -15.86 Q 390.72 -15.32 390.61 -14.58 Q 390.51 -13.83 390.47 -13.17 Q 390.43 -12.5 390.43 -11.63 L 390.43 -11.63 Z M 413.01 -2.13 L 413.01 -2.13 Q 413.01 -3.68 413.5 -4.16 Q 413.99 -4.65 415.55 -4.65 Q 417.11 -4.65 417.59 -4.17 Q 418.06 -3.69 418.06 -2.13 Q 418.06 -0.58 417.58 -0.08 Q 417.1 0.41 415.55 0.41 L 415.55 0.41 Q 413.99 0.41 413.5 -0.08 Q 413.01 -0.58 413.01 -2.13 Z M 428.5 5.12 L 428.5 -4.4 L 432.94 -4.4 L 432.94 -1.15 Q 432.94 0 432.5 1.09 Q 432.06 2.18 431.38 2.96 Q 430.7 3.74 429.96 4.29 Q 429.21 4.84 428.5 5.12 L 428.5 5.12 Z M 443.81 -6.15 L 443.81 -6.15 L 443.81 -22.07 L 448.13 -22.07 L 448.13 -6.15 Q 448.13 -4.83 448.72 -4.34 Q 449.31 -3.84 450.85 -3.84 L 450.85 -3.84 L 457.42 -3.84 L 457.42 0 L 450.85 0 Q 447.14 0 445.48 -1.44 Q 443.81 -2.88 443.81 -6.15 Z M 471.18 -18.22 L 465.29 -18.22 L 465.29 -22.07 L 481.41 -22.07 L 481.41 -18.22 L 475.49 -18.22 L 475.49 0 L 471.18 0 L 471.18 -18.22 Z M 490.95 -5.8 L 490.95 -5.8 L 490.95 -22.07 L 499.54 -22.07 Q 503.26 -22.07 505.36 -19.97 L 505.36 -19.97 Q 505.82 -19.51 506.17 -19 Q 506.51 -18.48 506.75 -18.02 Q 506.98 -17.56 507.14 -16.95 Q 507.3 -16.33 507.38 -15.87 Q 507.47 -15.41 507.51 -14.71 Q 507.56 -14 507.57 -13.56 Q 507.57 -13.12 507.59 -12.34 Q 507.6 -11.55 507.6 -11.13 L 507.6 -11.13 L 507.63 -8.75 Q 507.57 -7.66 507.48 -6.91 Q 507.39 -6.16 507.16 -5.25 Q 506.94 -4.34 506.49 -3.56 Q 506.04 -2.79 505.36 -2.1 L 505.36 -2.1 Q 504.32 -1.06 502.68 -0.53 Q 501.05 0 499.23 0 L 499.23 0 Q 496.8 0 495.24 -0.29 Q 493.68 -0.58 492.7 -1.28 Q 491.73 -1.98 491.34 -3.05 Q 490.95 -4.12 490.95 -5.8 Z M 495.27 -18.22 L 495.27 -6.01 Q 495.27 -4.77 496.1 -4.31 Q 496.93 -3.84 499.14 -3.84 L 499.14 -3.84 Q 501.23 -3.84 502.37 -5.21 L 502.37 -5.21 Q 502.94 -5.92 503.12 -7.18 Q 503.29 -8.45 503.29 -11.13 L 503.29 -11.13 Q 503.29 -13.77 503.12 -14.96 Q 502.94 -16.15 502.37 -16.86 L 502.37 -16.86 Q 501.23 -18.22 499.14 -18.22 L 499.14 -18.22 L 495.27 -18.22 Z M 516.95 -2.13 L 516.95 -2.13 Q 516.95 -3.68 517.44 -4.16 Q 517.94 -4.65 519.5 -4.65 Q 521.05 -4.65 521.53 -4.17 Q 522.01 -3.69 522.01 -2.13 Q 522.01 -0.58 521.52 -0.08 Q 521.04 0.41 519.5 0.41 L 519.5 0.41 Q 517.94 0.41 517.44 -0.08 Q 516.95 -0.58 516.95 -2.13 Z" stroke-linecap="round" />
</g>
</g>
</g>
<g transform="matrix(1 0 0 1 325 401.2344827680812)" id="tagline-0f162478-4c40-443f-8afb-81e2f3c50424-logo"  >
<g style=""  paint-order="stroke"   >
		<g transform="matrix(1 0 0 1 0 0)" id="tagline-0f162478-4c40-443f-8afb-81e2f3c50424-logo-path-0"  >
<path style="stroke: none; stroke-width: 0; stroke-dasharray: none; stroke-linecap: butt; stroke-dashoffset: 0; stroke-linejoin: miter; stroke-miterlimit: 4; fill: rgb(188,123,164); fill-rule: nonzero; opacity: 1;"  paint-order="stroke"  transform=" translate(0, 0)" d="" stroke-linecap="round" />
</g>
</g>
</g>
</svg>